<?xml version="1.0" encoding="utf-8"?>
<!-- Generator: Adobe Illustrator 14.0.0, SVG Export Plug-In . SVG Version: 6.00 Build 43363)  -->
<!DOCTYPE svg PUBLIC "-//W3C//DTD SVG 1.0//EN" "http://www.w3.org/TR/2001/REC-SVG-20010904/DTD/svg10.dtd">
<svg version="1.0" id="world" xmlns="http://www.w3.org/2000/svg" xmlns:xlink="http://www.w3.org/1999/xlink" x="0px" y="0px"
	 width="1300px" height="900px" viewBox="0 0 1300 900" enable-background="new 0 0 1300 900" xml:space="preserve">
<rect x="50" y="750" fill="#8E8E8E" width="100" height="100"/>
<rect x="100" y="500" fill="#8E8E8E" width="50" height="200"/>
<rect x="50" y="150" fill="#8E8E8E" width="50" height="300"/>
<rect x="200" y="500" fill="#8E8E8E" width="50" height="350"/>
<rect y="500" fill="#8E8E8E" width="50" height="200"/>
<rect x="100" y="150" fill="#8E8E8E" width="150" height="50"/>
<rect x="300" y="150" fill="#8E8E8E" width="50" height="300"/>
<rect x="150" y="400" fill="#8E8E8E" width="150" height="50"/>
<rect x="150" y="300" fill="#8E8E8E" width="100" height="50"/>
<rect x="200" y="250" fill="#8E8E8E" width="50" height="50"/>
<rect x="450" fill="#8E8E8E" width="100" height="300"/>
<rect x="450" y="400" fill="#8E8E8E" width="100" height="300"/>
<rect x="450" y="800" fill="#8E8E8E" width="100" height="100"/>
<rect x="250" y="500" fill="#8E8E8E" width="150" height="50"/>
<rect x="250" y="650" fill="#8E8E8E" width="150" height="50"/>
<rect x="250" y="800" fill="#8E8E8E" width="150" height="50"/>
<rect x="600" y="100" fill="#8E8E8E" width="50" height="150"/>
<rect x="550" y="500" fill="#8E8E8E" width="550" height="50"/>
<rect x="1200" y="400" fill="#8E8E8E" width="100" height="150"/>
<rect x="600" y="250" fill="#8E8E8E" width="350" height="50"/>
<rect x="600" y="400" fill="#8E8E8E" width="500" height="50"/>
<rect x="1050" y="250" fill="#8E8E8E" width="250" height="50"/>
<rect x="1050" y="50" fill="#8E8E8E" width="50" height="160"/>
<rect x="900" y="50" fill="#8E8E8E" width="50" height="150"/>
<rect x="700" y="100" fill="#8E8E8E" width="200" height="50"/>
<rect x="1200" y="50" fill="#8E8E8E" width="100" height="150"/>
<rect x="1050" y="600" fill="#8E8E8E" width="50" height="200"/>
<rect x="650" y="750" fill="#8E8E8E" width="400" height="50"/>
<rect x="650" y="600" fill="#8E8E8E" width="50" height="150"/>
<rect x="750" y="600" fill="#8E8E8E" width="150" height="50"/>
<rect x="800" y="650" fill="#8E8E8E" width="50" height="100"/>
<rect x="950" y="600" fill="#8E8E8E" width="100" height="50"/>
<rect x="1150" y="600" fill="#8E8E8E" width="150" height="50"/>
<rect x="1200" y="700" fill="#8E8E8E" width="50" height="150"/>
<rect x="1050" y="800" fill="#8E8E8E" width="50" height="50"/>
<rect x="650" y="850" fill="#8E8E8E" width="99.581" height="50"/>
<rect x="50" y="50" fill="#8E8E8E" width="50" height="100"/>
<rect x="150" y="50" fill="#8E8E8E" width="200" height="50"/>
<rect x="800" y="800" fill="#8E8E8E" width="49.581" height="50"/>
<rect x="900" y="850" fill="#8E8E8E" width="99.581" height="50"/>
</svg>
